<svg id="france_tv" xmlns="http://www.w3.org/2000/svg" viewBox="0 0 950 420"><defs><style>.cls-1{fill:#fff;}</style></defs><title>logo</title><path class="cls-1" d="M366,262.61V190.26h18.65v5.81a31.93,31.93,0,0,1,20.43-7.31,32.58,32.58,0,0,1,25.06,11.64c4.78,5.67,7.46,13,7.46,25.36v36.85H418.24V224.27c0-7.16-1.64-10.89-4.33-13.58a15.25,15.25,0,0,0-10.89-4c-8.2,0-14.91,5.22-17.6,9v47Z"/><path class="cls-1" d="M592.38,251.12c-7,8.36-18.49,13-29.68,13-21.63,0-37.89-14.92-37.89-37.59,0-20.14,13.72-37.75,35.2-37.75,20,0,34.16,16.86,34.16,37a32.68,32.68,0,0,1-.44,5.52H543.6c1,10.14,9.25,17.16,19.54,17.16,8.21,0,14.77-4.63,18.2-8.36Zm-18-34A14.41,14.41,0,0,0,560,204.43c-8,0-14.62,6.11-15.51,12.68Z"/><path class="cls-1" d="M350.25,262.61H331.61v-5.82a30.27,30.27,0,0,1-20.14,7.31,36.36,36.36,0,0,1-27.3-12.23,38.85,38.85,0,0,1-9.25-25.36c0-21.34,15.81-37.75,35.5-37.75a33.18,33.18,0,0,1,21.19,7.31v-5.81h18.64Zm-19.39-47a22.24,22.24,0,0,0-17.9-9c-11.34,0-18.65,9.39-18.65,19.84,0,11.33,8.21,19.69,19.1,19.69a21.18,21.18,0,0,0,17.45-8.95Z"/><path class="cls-1" d="M520.37,247.84c-8.51,11.34-19.25,16.26-32.82,16.26-22.38,0-38.79-16.71-38.79-37.59,0-21,16.86-37.75,38.93-37.75a38.6,38.6,0,0,1,30.44,14.48L504.4,215.32a21,21,0,0,0-16.71-8.66c-11.18,0-19.54,8.81-19.54,19.85,0,11.33,8.21,19.69,20,19.69a21.23,21.23,0,0,0,17.31-9.55Z"/><path class="cls-1" d="M271.94,207.41a27,27,0,0,0-7-.74c-8.51,0-15.22,6.11-17.61,10.44v45.5H227.93V190.26h18.65v7.31c4.32-5.37,12.23-8.81,21-8.81a39.11,39.11,0,0,1,6.56.6Z"/><path class="cls-1" d="M216,173.1a24.74,24.74,0,0,0-5.82-.74c-4.77,0-8.5,1.34-10.89,4.17-1.64,2.09-2.68,4.78-2.68,11.49v2.24H219v16.41H196.6v55.94H177.21V206.67H158.56V190.26h18.65v-3c0-11.63,2.68-18.64,7.75-23.57s12.68-8.5,22.53-8.5A44.1,44.1,0,0,1,219,156.54Z"/><circle class="cls-1" cx="632.26" cy="226.43" r="19.76"/><path class="cls-1" d="M695.16,190.26V170.12H675.77v20.14H657.13v16.41h18.64V232c0,10.29,1.64,16.7,5.37,21.63,4.92,6.56,13.42,10.44,25.06,10.44,3.73,0,9.55-.6,12.08-1.49l-3-16.41a47.15,47.15,0,0,1-7.91.74c-4.77,0-7.9-1.34-9.84-3.58-1.64-1.94-2.39-4.62-2.39-9.1V206.67H719l25.72,55.94h13.42l33.27-72.35H771.3l-19.84,44.15-19.84-44.15Z"/></svg>